<svg id="Google_Play_Store" data-name="Google Play Store" xmlns="http://www.w3.org/2000/svg" xmlns:xlink="http://www.w3.org/1999/xlink" width="135.161" height="40.048" viewBox="0 0 135.161 40.048">
  <defs>
    <linearGradient id="linear-gradient" x1="0.915" y1="6.617" x2="-0.384" y2="5.947" gradientUnits="objectBoundingBox">
      <stop offset="0" stop-color="#00a0ff"/>
      <stop offset="0.007" stop-color="#00a1ff"/>
      <stop offset="0.26" stop-color="#00beff"/>
      <stop offset="0.512" stop-color="#00d2ff"/>
      <stop offset="0.76" stop-color="#00dfff"/>
      <stop offset="1" stop-color="#00e3ff"/>
    </linearGradient>
    <linearGradient id="linear-gradient-2" x1="1.076" y1="17.089" x2="-1.305" y2="17.089" gradientUnits="objectBoundingBox">
      <stop offset="0" stop-color="#ffe000"/>
      <stop offset="0.409" stop-color="#ffbd00"/>
      <stop offset="0.775" stop-color="orange"/>
      <stop offset="1" stop-color="#ff9c00"/>
    </linearGradient>
    <linearGradient id="linear-gradient-3" x1="0.863" y1="10.864" x2="-0.502" y2="9.095" gradientUnits="objectBoundingBox">
      <stop offset="0" stop-color="#ff3a44"/>
      <stop offset="1" stop-color="#c31162"/>
    </linearGradient>
    <linearGradient id="linear-gradient-4" x1="-0.188" y1="13.585" x2="0.421" y2="12.794" gradientUnits="objectBoundingBox">
      <stop offset="0" stop-color="#32a071"/>
      <stop offset="0.068" stop-color="#2da771"/>
      <stop offset="0.476" stop-color="#15cf74"/>
      <stop offset="0.801" stop-color="#06e775"/>
      <stop offset="1" stop-color="#00f076"/>
    </linearGradient>
  </defs>
  <g id="Group_262" data-name="Group 262">
    <path id="Path_587" data-name="Path 587" d="M130.156,40.048H5.006A5.021,5.021,0,0,1,0,35.042V5.006A5.021,5.021,0,0,1,5.006,0h125.15a5.021,5.021,0,0,1,5.006,5.006V35.042A5.021,5.021,0,0,1,130.156,40.048Z"/>
  </g>
  <g id="Group_263" data-name="Group 263">
    <path id="Path_588" data-name="Path 588" d="M130.156.8a4.2,4.2,0,0,1,4.205,4.205V35.042a4.2,4.2,0,0,1-4.205,4.205H5.006A4.2,4.2,0,0,1,.8,35.042V5.006A4.2,4.2,0,0,1,5.006.8h125.15m0-.8H5.006A5.021,5.021,0,0,0,0,5.006V35.042a5.021,5.021,0,0,0,5.006,5.006h125.15a5.021,5.021,0,0,0,5.006-5.006V5.006A5.021,5.021,0,0,0,130.156,0Z" fill="#a6a6a6"/>
  </g>
  <path id="Path_589" data-name="Path 589" d="M47.427,10.244a2.68,2.68,0,0,1-.751,2,2.911,2.911,0,0,1-2.2.891A3.094,3.094,0,0,1,41.35,10a3,3,0,0,1,.911-2.233,3.163,3.163,0,0,1,3.444-.651,2.547,2.547,0,0,1,.941.671l-.531.531a2.037,2.037,0,0,0-1.642-.711,2.268,2.268,0,0,0-1.642.671,2.292,2.292,0,0,0-.691,1.732,2.365,2.365,0,0,0,4.015,1.732,1.873,1.873,0,0,0,.5-1.221H44.474V9.793h2.913A3.751,3.751,0,0,1,47.427,10.244Z" transform="translate(0.049 0.008)" fill="#fff" stroke="#fff" stroke-miterlimit="10" stroke-width="0.2"/>
  <path id="Path_590" data-name="Path 590" d="M52.034,7.741H49.3v1.9h2.463v.721H49.3v1.9h2.733v.741h-3.5V7h3.5Z" transform="translate(0.058 0.008)" fill="#fff" stroke="#fff" stroke-miterlimit="10" stroke-width="0.2"/>
  <path id="Path_591" data-name="Path 591" d="M55.283,13.007h-.771V7.741H52.83V7h4.125v.741H55.273v5.266Z" transform="translate(0.063 0.008)" fill="#fff" stroke="#fff" stroke-miterlimit="10" stroke-width="0.2"/>
  <path id="Path_592" data-name="Path 592" d="M59.94,13.007V7h.771v6.007Z" transform="translate(0.072 0.008)" fill="#fff" stroke="#fff" stroke-miterlimit="10" stroke-width="0.2"/>
  <path id="Path_593" data-name="Path 593" d="M64.133,13.007h-.771V7.741H61.68V7H65.8v.741H64.123v5.266Z" transform="translate(0.074 0.008)" fill="#fff" stroke="#fff" stroke-miterlimit="10" stroke-width="0.2"/>
  <path id="Path_594" data-name="Path 594" d="M73.616,12.226a3.118,3.118,0,0,1-4.405,0A3.075,3.075,0,0,1,68.33,10a3.058,3.058,0,0,1,.881-2.223,2.931,2.931,0,0,1,2.2-.911,2.962,2.962,0,0,1,2.2.911A3.084,3.084,0,0,1,74.507,10,3.091,3.091,0,0,1,73.616,12.226Zm-3.835-.5a2.321,2.321,0,0,0,3.264,0A2.363,2.363,0,0,0,73.716,10a2.324,2.324,0,0,0-.671-1.722,2.308,2.308,0,0,0-3.264-.01A2.4,2.4,0,0,0,69.111,10,2.363,2.363,0,0,0,69.782,11.726Z" transform="translate(0.082 0.008)" fill="#fff" stroke="#fff" stroke-miterlimit="10" stroke-width="0.2"/>
  <path id="Path_595" data-name="Path 595" d="M75.58,13.007V7h.941l2.923,4.676h.03l-.03-1.161V7h.771v6.007h-.8l-3.054-4.9h-.03l.03,1.161v3.734Z" transform="translate(0.09 0.008)" fill="#fff" stroke="#fff" stroke-miterlimit="10" stroke-width="0.2"/>
  <path id="Path_596" data-name="Path 596" d="M68.172,21.756a4.255,4.255,0,1,0,4.275,4.255A4.2,4.2,0,0,0,68.172,21.756Zm0,6.838a2.59,2.59,0,1,1,2.4-2.583A2.461,2.461,0,0,1,68.172,28.594Zm-9.331-6.838a4.255,4.255,0,1,0,4.275,4.255A4.2,4.2,0,0,0,58.841,21.756Zm0,6.838a2.59,2.59,0,1,1,2.4-2.583A2.461,2.461,0,0,1,58.841,28.594ZM47.748,23.067v1.8h4.325a3.8,3.8,0,0,1-.981,2.273,4.416,4.416,0,0,1-3.334,1.322,4.806,4.806,0,0,1,0-9.611,4.576,4.576,0,0,1,3.254,1.292l1.272-1.272a6.3,6.3,0,0,0-4.535-1.822,6.619,6.619,0,1,0,0,13.236,6.037,6.037,0,0,0,4.616-1.852,5.975,5.975,0,0,0,1.562-4.225,5.462,5.462,0,0,0-.1-1.131H47.748Zm45.364,1.4a3.951,3.951,0,0,0-3.644-2.713,4.043,4.043,0,0,0-4.015,4.255,4.164,4.164,0,0,0,4.225,4.255,4.219,4.219,0,0,0,3.544-1.882l-1.452-.971a2.422,2.422,0,0,1-2.092,1.181A2.166,2.166,0,0,1,87.616,27.3l5.7-2.353Zm-5.807,1.422a2.334,2.334,0,0,1,2.223-2.483,1.654,1.654,0,0,1,1.582.9ZM82.68,30.015h1.872V17.5H82.68Zm-3.064-7.309h-.07a2.943,2.943,0,0,0-2.243-.951,4.264,4.264,0,0,0,0,8.52,2.9,2.9,0,0,0,2.243-.971h.06v.611c0,1.632-.871,2.5-2.273,2.5a2.357,2.357,0,0,1-2.143-1.512l-1.632.681A4.058,4.058,0,0,0,77.333,34.1c2.193,0,4.045-1.292,4.045-4.435V22.016H79.606v.691Zm-2.153,5.887a2.587,2.587,0,0,1,0-5.156,2.4,2.4,0,0,1,2.273,2.593A2.368,2.368,0,0,1,77.464,28.594ZM101.883,17.5H97.407V30.015H99.28V25.27h2.613a3.891,3.891,0,1,0-.01-7.769Zm.04,6.027H99.27v-4.3h2.653a2.148,2.148,0,1,1,0,4.3Zm11.554-1.792a3.522,3.522,0,0,0-3.334,1.912l1.662.691a1.766,1.766,0,0,1,1.7-.921,1.791,1.791,0,0,1,1.962,1.612v.13a4.181,4.181,0,0,0-1.952-.481c-1.792,0-3.6.981-3.6,2.813a2.89,2.89,0,0,0,3.1,2.753,2.633,2.633,0,0,0,2.383-1.221h.06V30h1.8V25.2C117.271,22.977,115.609,21.736,113.477,21.736Zm-.23,6.858c-.611,0-1.462-.31-1.462-1.061,0-.961,1.061-1.332,1.982-1.332a3.3,3.3,0,0,1,1.7.421A2.259,2.259,0,0,1,113.246,28.594Zm10.593-6.588L121.7,27.432h-.06l-2.223-5.426H117.4l3.334,7.589-1.9,4.215h1.952l5.136-11.8Zm-16.82,8.01h1.872V17.5h-1.872Z" transform="translate(0.049 0.02)" fill="#fff"/>
  <path id="Path_597" data-name="Path 597" d="M10.441,7.54a2.015,2.015,0,0,0-.461,1.4V31.088a1.98,1.98,0,0,0,.461,1.4l.07.07,12.4-12.395v-.3L10.511,7.47Z" transform="translate(0.012 0.009)" fill="url(#linear-gradient)"/>
  <path id="Path_598" data-name="Path 598" d="M27.035,24.29,22.9,20.155v-.3l4.135-4.135.09.05,4.9,2.783c1.4.791,1.4,2.093,0,2.893l-4.9,2.783Z" transform="translate(0.027 0.019)" fill="url(#linear-gradient-2)"/>
  <path id="Path_599" data-name="Path 599" d="M27.14,24.235,22.915,20,10.44,32.475a1.624,1.624,0,0,0,2.082.06l14.617-8.3" transform="translate(0.012 0.024)" fill="url(#linear-gradient-3)"/>
  <path id="Path_600" data-name="Path 600" d="M27.14,15.79,12.512,7.48a1.624,1.624,0,0,0-2.082.06L22.915,20.015Z" transform="translate(0.012 0.009)" fill="url(#linear-gradient-4)"/>
  <g id="Group_264" data-name="Group 264" transform="translate(9.992 24.159)">
    <path id="Path_601" data-name="Path 601" d="M27.05,24.13,12.512,32.39a1.663,1.663,0,0,1-2,.01h0l-.07.07h0l.07.07h0a1.665,1.665,0,0,0,2-.01L27.14,24.22Z" transform="translate(-9.979 -24.13)" opacity="0.2"/>
    <path id="Path_602" data-name="Path 602" d="M10.441,32.322a2.015,2.015,0,0,1-.461-1.4v.15a1.98,1.98,0,0,0,.461,1.4l.07-.07Z" transform="translate(-9.98 -24.122)" opacity="0.12"/>
  </g>
  <path id="Path_603" data-name="Path 603" d="M32.016,21.3l-5,2.833.09.09,4.9-2.783A1.76,1.76,0,0,0,33.057,20h0A1.821,1.821,0,0,1,32.016,21.3Z" transform="translate(0.032 0.024)" opacity="0.12"/>
  <path id="Path_604" data-name="Path 604" d="M12.513,7.621,32.036,18.714a1.871,1.871,0,0,1,1.051,1.3h0a1.747,1.747,0,0,0-1.051-1.442L12.513,7.48c-1.4-.791-2.543-.13-2.543,1.472V9.1C9.97,7.49,11.121,6.83,12.513,7.621Z" transform="translate(0.012 0.009)" fill="#fff" opacity="0.25"/>
</svg>
