<?xml version="1.0" encoding="utf-8"?>
<!-- Generator: Adobe Illustrator 25.3.1, SVG Export Plug-In . SVG Version: 6.00 Build 0)  -->
<svg version="1.1" id="Layer_1" xmlns="http://www.w3.org/2000/svg" xmlns:xlink="http://www.w3.org/1999/xlink" x="0px" y="0px"
	 width="56.932px" height="48.165px" viewBox="0 0 56.932 48.165" enable-background="new 0 0 56.932 48.165" xml:space="preserve">
<g>
	<g>
		<path d="M48.389,42.218c-0.025-2.623-2.172-4.729-4.795-4.704c-2.649,0-4.797,2.147-4.797,4.797c0,2.649,2.147,4.797,4.797,4.797
			c2.649,0,4.797-2.148,4.797-4.797h-0.002C48.389,42.28,48.389,42.249,48.389,42.218z"/>
		<path fill="#FFFFFF" d="M43.64,37.514c2.602,0,4.724,2.097,4.749,4.705c0,0.031,0,0.062,0,0.092h0.002
			c0,2.649-2.148,4.797-4.797,4.797c-2.649,0-4.797-2.148-4.797-4.797c0-2.649,2.147-4.797,4.797-4.797
			C43.61,37.514,43.625,37.514,43.64,37.514 M43.64,36.746c-0.002,0-0.051,0-0.053,0c-3.061,0-5.557,2.496-5.557,5.564
			c0,3.068,2.496,5.564,5.564,5.564c3.068,0,5.564-2.496,5.564-5.564c0-0.018-0.001-0.037-0.002-0.055v-0.044
			C49.127,39.198,46.653,36.746,43.64,36.746L43.64,36.746z"/>
	</g>
	<g>
		<path d="M23.476,37.514c-2.649,0-4.797,2.147-4.797,4.797c0,2.649,2.148,4.797,4.797,4.797s4.797-2.148,4.797-4.797
			c0-0.031,0-0.063,0-0.094C28.247,39.593,26.099,37.488,23.476,37.514z"/>
		<path fill="#FFFFFF" d="M23.524,37.514c2.601,0,4.723,2.096,4.749,4.703c0,0.031,0,0.063,0,0.094c0,2.649-2.148,4.797-4.797,4.797
			s-4.797-2.148-4.797-4.797c0-2.649,2.148-4.797,4.797-4.797C23.492,37.514,23.508,37.514,23.524,37.514 M23.524,36.746
			c-0.003,0-0.053,0-0.056,0c-3.06,0-5.556,2.496-5.556,5.564c0,3.068,2.496,5.564,5.564,5.564c3.068,0,5.564-2.496,5.564-5.564
			l0-0.1C29.01,39.197,26.536,36.746,23.524,36.746L23.524,36.746z"/>
	</g>
	<g>
		<polygon points="21.174,12.711 21.95,16.529 51.619,16.529 47.05,31.757 18.138,31.757 14.105,15.449 10.459,1.058 1.249,1.058 
			1.249,4.896 7.389,4.896 15.064,35.595 49.52,35.595 55.639,16.408 55.639,12.711 		"/>
		<path fill="#FFFFFF" d="M10.459,1.058l3.645,14.391l4.034,16.309H47.05l4.569-15.229H21.95l-0.776-3.817h34.465v3.696
			L49.52,35.595H15.064l-7.674-30.7h-6.14V1.058H10.459 M10.459,0.29h-9.21c-0.424,0-0.767,0.344-0.767,0.767v3.838
			c0,0.424,0.344,0.767,0.767,0.767H6.79l7.529,30.118c0.085,0.342,0.392,0.581,0.744,0.581H49.52c0.334,0,0.63-0.216,0.731-0.534
			l6.119-19.187c0.024-0.075,0.036-0.154,0.036-0.233v-3.696c0-0.424-0.344-0.767-0.767-0.767H21.174
			c-0.23,0-0.448,0.103-0.594,0.282c-0.146,0.178-0.204,0.413-0.158,0.638l0.776,3.817c0.073,0.358,0.387,0.615,0.752,0.615h28.638
			L46.479,30.99h-27.74L14.85,15.264L11.203,0.869C11.117,0.529,10.811,0.29,10.459,0.29L10.459,0.29z"/>
	</g>
</g>
</svg>
