<?xml version="1.0" encoding="UTF-8"?>
<svg width="57px" height="49px" viewBox="0 0 57 49" version="1.1" xmlns="http://www.w3.org/2000/svg" xmlns:xlink="http://www.w3.org/1999/xlink">
    <title>shopping-cart--dark</title>
    <g id="Page-1" stroke="none" stroke-width="1" fill="none" fill-rule="evenodd">
        <g id="shopping-cart--dark" fill="#FFFFFF" fill-rule="nonzero">
            <path d="M56.931,16.055 L50.911,36.124 L14.449,36.124 L6.422,4.014 L0,4.014 L0,0 L9.633,0 L13.446,15.052 L13.446,15.052 L17.665,32.11 L47.905,32.11 L52.722,16.055 L56.931,16.055 Z M28.265,43.148 C28.265,45.9188126 26.0188126,48.165 23.248,48.165 C20.4771874,48.165 18.231,45.9188126 18.231,43.148 C18.231,40.3771874 20.4771874,38.131 23.248,38.131 C24.5826028,38.1177704 25.8663975,38.6420964 26.8101506,39.5858494 C27.7539036,40.5296025 28.2782296,41.8133972 28.265,43.148 L28.265,43.148 Z M49.307,43.148 C49.307,45.9188126 47.0608126,48.165 44.29,48.165 C41.5191874,48.165 39.273,45.9188126 39.273,43.148 C39.273,40.3771874 41.5191874,38.131 44.29,38.131 C45.6242578,38.1183111 46.9075334,38.6428758 47.8508506,39.5865693 C48.7941679,40.5302628 49.3182209,41.8137474 49.305,43.148 L49.307,43.148 Z" id="Shape"></path>
        </g>
    </g>
</svg>